<?xml version="1.0" standalone="no"?>
<!DOCTYPE svg PUBLIC "-//W3C//DTD SVG 20010904//EN"
 "http://www.w3.org/TR/2001/REC-SVG-20010904/DTD/svg10.dtd">
<svg version="1.0" xmlns="http://www.w3.org/2000/svg"
 width="700.000000pt" height="700.000000pt" viewBox="0 0 700.000000 700.000000"
 preserveAspectRatio="xMidYMid meet">
<metadata>
Created by potrace 1.14, written by Peter Selinger 2001-2017
</metadata>
<g transform="translate(0.000000,700.000000) scale(0.100000,-0.100000)"
fill="#000000" stroke="none">
<path d="M3215 6994 c-527 -52 -991 -193 -1418 -433 -575 -321 -1037 -783
-1359 -1358 -213 -382 -345 -781 -415 -1258 -14 -95 -18 -187 -18 -445 0 -348
7 -419 61 -695 198 -995 833 -1864 1731 -2366 381 -214 782 -346 1258 -416
152 -22 706 -25 855 -5 691 95 1270 339 1784 752 639 514 1087 1249 1240 2038
55 283 61 346 61 692 0 346 -6 409 -61 692 -148 762 -575 1482 -1179 1989
-517 433 -1119 699 -1800 795 -114 16 -633 28 -740 18z m1045 -2004 l0 -150
-935 0 -935 0 0 -822 c0 -525 4 -846 11 -887 16 -99 57 -214 105 -291 26 -42
36 -66 26 -61 -31 17 -237 235 -284 301 -56 79 -108 182 -139 275 l-24 70 -3
858 -3 857 1091 0 1090 0 0 -150z m658 -1357 c-4 -953 0 -896 -73 -1050 -112
-239 -314 -434 -818 -791 l-198 -141 -192 136 c-592 420 -802 644 -877 937
-19 76 -20 110 -20 923 l0 843 1090 0 1091 0 -3 -857z"/>
<path d="M3060 3500 c0 -652 1 -672 21 -732 58 -175 235 -356 606 -624 116
-83 138 -95 156 -87 12 6 104 72 205 147 338 254 504 442 541 614 7 36 11 260
11 702 l0 650 -770 0 -770 0 0 -670z"/>
</g>
</svg>
